<svg width="60" height="60" viewBox="0 0 60 60" fill="none" xmlns="http://www.w3.org/2000/svg">
<path fill-rule="evenodd" clip-rule="evenodd" d="M42.139 1.09859C41.9904 1.21933 41.9877 1.24629 41.9292 3.18314C41.8134 7.01633 41.7221 8.23182 41.0171 15.3214C40.3604 21.9257 40.2098 23.0864 39.7481 25.1048C39.3439 26.8713 39.313 27.2722 39.5258 27.9844C39.7911 28.8723 39.6665 31.1003 39.3195 31.6728C39.0393 32.1352 38.4355 31.8102 38.2438 31.0939C37.9794 30.1054 37.9427 30.0238 37.5988 29.6568C37.4114 29.4567 37.1623 29.1509 37.0453 28.9772C36.1076 27.5851 35.1697 24.0712 34.7803 20.4912C34.6282 19.0931 34.6285 16.1248 34.7809 14.7324C35.0846 11.9585 35.7103 9.10637 36.582 6.52192C36.9093 5.55163 37.0413 4.92439 37.0413 4.33895C37.0413 3.79383 36.8942 3.54208 36.5758 3.54208C36.2726 3.54208 36.1287 3.65569 35.9677 4.02209C35.4432 5.21599 34.4445 8.9645 33.5869 12.9585C32.7953 16.6446 32.7743 17.0842 33.2907 19.1418C33.6145 20.432 33.7447 21.3863 33.6545 21.8083C33.451 22.7607 34.252 25.9535 35.3106 28.4096C35.6203 29.1283 35.8774 29.5493 36.2291 29.9147C36.5093 30.2056 36.5908 30.4075 36.6845 31.042C36.7397 31.4156 37.0767 31.7943 37.7919 32.2868C38.9352 33.0739 39.1135 33.3284 39.0351 34.0614C38.892 35.4 38.3798 37.9299 37.6193 41.0539L37.1617 42.9333L36.9547 42.9663C36.8409 42.9844 35.8087 43.0754 34.661 43.1684C33.5132 43.2614 32.1193 43.3983 31.5634 43.4726C30.013 43.6798 29.5327 43.6422 29.3066 43.2959C29.1661 43.0806 29.2372 42.968 30.0294 42.1521C30.741 41.4192 31.2657 40.7358 32.1646 39.3709C32.84 38.3455 33.2208 37.8821 33.5018 37.7439C33.6377 37.677 33.7264 37.5762 33.7528 37.4586C33.917 36.7277 33.9311 36.7061 34.5832 36.177C35.3274 35.5732 36.3796 33.4827 36.2335 32.8983C36.1799 32.684 36.0361 32.6468 35.8449 32.7978C35.4111 33.1403 33.989 35.2583 33.8441 35.7779C33.7588 36.0836 33.4917 36.3666 32.7594 36.9272C32.2605 37.3091 31.5628 38.1071 30.8488 39.1124C30.1454 40.1028 29.4761 40.9432 28.6408 41.8846C27.871 42.7524 27.3565 43.4743 27.185 43.9273C27.0339 44.3262 27.0343 44.3476 27.1941 44.508C27.3155 44.6298 27.4114 44.6389 28.5799 44.6388C30.3835 44.6387 33.331 44.3997 34.7262 44.1403C36.0862 43.8875 36.2913 43.9373 36.2812 44.5176C36.2736 44.959 36.0534 45.615 35.5157 46.7979C34.7921 48.3901 34.096 49.4455 32.8425 50.8507C31.0539 52.8557 28.6338 54.614 25.4864 56.1952C23.3117 57.2878 22.7993 57.4438 21.103 57.5292C18.943 57.6381 16.75 57.4306 15.4975 56.999C14.5856 56.6848 12.9802 56.0024 11.9016 55.4705C9.86663 54.4668 8.6103 53.6803 7.10844 52.4699C5.81161 51.4248 5.53498 51.2978 5.44557 51.7063C5.38799 51.9691 5.63593 52.4182 6.17465 53.027C7.0054 53.9657 7.76585 54.5637 8.31488 54.7102C8.48444 54.7554 8.71268 54.9097 8.96701 55.1513C9.50405 55.6613 10.1365 56.0643 11.4074 56.7062C13.4138 57.7197 15.2684 58.3996 16.76 58.6684C18.1321 58.9157 19.1557 58.991 20.6076 58.9518C22.8228 58.8918 23.8385 58.6216 25.9224 57.5383C29.4239 55.718 32.8155 53.1259 34.5853 50.9175C35.3855 49.9189 35.8225 49.1424 36.6821 47.191C37.7724 44.7161 38.1507 44.0573 38.6218 43.8128C38.7527 43.7449 39.1321 43.6902 39.7402 43.6515C41.9212 43.5127 43.3422 43.3594 46.1059 42.9647C48.7182 42.5917 51.6051 42.0662 52.4059 41.818C52.9051 41.6633 52.9455 41.5181 52.5285 41.377C52.0843 41.2266 49.597 41.3167 47.5406 41.5576C44.6871 41.8918 41.5428 42.333 40.2367 42.5822C39.9677 42.6336 39.5775 42.6756 39.3697 42.6756C39.0502 42.6756 38.9656 42.6495 38.8232 42.5065C38.6682 42.351 38.6575 42.3048 38.6908 41.9339C38.7107 41.7119 38.8485 41.1329 38.9971 40.647C39.3374 39.5347 39.5391 38.6392 39.7119 37.4731C39.8874 36.2892 40.0311 35.572 40.1553 35.2596C40.2432 35.0385 40.2745 35.014 40.4251 35.049C40.7247 35.1186 41.4873 35.5217 42.2257 36.0008C44.1104 37.2236 46.8241 38.3404 50.6708 39.4761C52.8114 40.1081 53.4259 40.3853 53.5144 40.7588C53.627 41.2338 53.9253 41.3528 55.2078 41.4346C56.326 41.5059 56.4015 41.4906 56.6085 41.1499C56.8087 40.8204 56.776 40.537 56.5084 40.2838C56.153 39.9474 55.4793 39.7057 50.3121 38.0606C46.1285 36.7286 42.7215 35.189 41.1933 33.9398C40.6131 33.4655 40.5362 33.2908 40.5477 32.4718C40.5605 31.5603 40.8776 29.0949 41.7645 23.0107C42.0582 20.9964 42.3661 18.482 42.4216 17.6446C42.4738 16.8581 42.5396 16.5742 42.724 16.3388C42.8462 16.183 42.8589 16.1038 42.8277 15.6923C42.8081 15.4343 42.7145 14.9066 42.6197 14.5195C42.5133 14.0855 42.4547 13.685 42.4669 13.4747C42.4855 13.1517 42.5033 13.1212 42.8052 12.8925C43.3122 12.5087 43.3931 12.3309 43.4224 11.5361C43.4502 10.784 43.369 10.6813 43.245 11.3116C43.1628 11.7295 42.9607 12.1148 42.8237 12.1148C42.7749 12.1148 42.6791 12.0528 42.6108 11.9771C42.5043 11.8589 42.4866 11.7353 42.4866 11.11C42.4866 10.2714 42.5716 10.0487 43.0044 9.75371C43.4239 9.46787 43.6242 8.87569 43.4267 8.5055C43.3639 8.38751 43.3154 8.37782 42.9824 8.41663C42.5371 8.46846 42.4349 8.3898 42.466 8.01947C42.4925 7.70568 42.7033 7.5447 43.1586 7.49058C43.6682 7.42998 43.7582 7.28542 43.7582 6.52716C43.7582 5.52971 43.5168 2.63128 43.3583 1.72518C43.299 1.38581 43.2528 1.29105 43.0902 1.17483C42.8152 0.97831 42.3344 0.939765 42.139 1.09859ZM31.8938 18.5874C31.4954 19.1488 29.0514 25.2079 26.6934 31.4798C25.7829 33.9015 24.3247 38.2378 24.3247 38.5234C24.3247 38.7773 24.5482 39.122 24.8413 39.3202C25.1194 39.5083 25.1832 39.5066 25.4219 39.3051C25.6568 39.1067 25.8553 38.5792 26.2098 37.2113C26.7855 34.99 28.5216 30.1186 30.421 25.3945C31.7211 22.1611 32.1062 20.9197 32.277 19.4115C32.3766 18.532 32.201 18.1543 31.8938 18.5874ZM4.08594 49.3345C3.99829 49.4768 3.96901 50.0732 4.03912 50.2865C4.13785 50.5867 4.26658 50.6299 4.43229 50.4186C4.60419 50.1993 4.60028 49.971 4.4184 49.6131C4.27291 49.3269 4.15265 49.2261 4.08594 49.3345Z" fill="black"/>
</svg>
