<svg width="20" height="22" viewBox="0 0 20 22" fill="none" xmlns="http://www.w3.org/2000/svg">
<path d="M17.2065 12.3314L11.5815 17.9564C11.4933 18.0432 11.3745 18.0916 11.2508 18.0911C11.1272 18.0906 11.0087 18.0412 10.9213 17.9538C10.8338 17.8664 10.7845 17.7479 10.784 17.6243C10.7834 17.5006 10.8318 17.3818 10.9185 17.2936L15.7434 12.4688H3.125C3.00068 12.4688 2.88145 12.4194 2.79354 12.3315C2.70564 12.2436 2.65625 12.1243 2.65625 12C2.65625 11.8757 2.70564 11.7565 2.79354 11.6686C2.88145 11.5807 3.00068 11.5313 3.125 11.5313H15.7434L10.9185 6.70642C10.8318 6.61826 10.7834 6.49941 10.784 6.37575C10.7845 6.25209 10.8338 6.13365 10.9213 6.04622C11.0087 5.95879 11.1272 5.90946 11.2508 5.90897C11.3745 5.90848 11.4933 5.95687 11.5815 6.04361L17.2065 11.6686C17.25 11.7121 17.2845 11.7638 17.3081 11.8207C17.3316 11.8775 17.3438 11.9385 17.3438 12C17.3438 12.0616 17.3316 12.1225 17.3081 12.1794C17.2845 12.2362 17.25 12.2879 17.2065 12.3314Z" fill="black"/>
</svg>
