<svg width="20" height="22" viewBox="0 0 20 22" fill="none" xmlns="http://www.w3.org/2000/svg">
<path d="M17.8314 14.8315L14.0816 18.5813C14.0595 18.6033 14.0353 18.6231 14.0093 18.6404C14.0077 18.6415 14.0059 18.6423 14.0042 18.6435C13.9802 18.6591 13.9547 18.6725 13.9282 18.6834L13.9222 18.6856C13.8958 18.6962 13.8686 18.7043 13.8408 18.7098C13.8393 18.7101 13.8377 18.7102 13.8362 18.7105C13.7793 18.7215 13.7207 18.7215 13.6637 18.7105C13.6622 18.7102 13.6606 18.7101 13.6592 18.7098C13.6314 18.7042 13.6042 18.6961 13.5778 18.6856C13.5758 18.6848 13.5738 18.6843 13.5718 18.6834C13.5453 18.6725 13.5198 18.6591 13.4958 18.6434C13.4941 18.6423 13.4923 18.6415 13.4907 18.6403C13.4647 18.6231 13.4405 18.6033 13.4184 18.5813L9.66859 14.8315C9.58186 14.7433 9.53346 14.6245 9.53395 14.5008C9.53444 14.3772 9.58377 14.2587 9.6712 14.1713C9.75863 14.0838 9.87708 14.0345 10.0007 14.034C10.1244 14.0334 10.2432 14.0818 10.3314 14.1685L13.2812 17.1184V7.46875H2.5C2.37568 7.46875 2.25645 7.41936 2.16854 7.33146C2.08064 7.24355 2.03125 7.12432 2.03125 7C2.03125 6.87568 2.08064 6.75645 2.16854 6.66854C2.25645 6.58064 2.37568 6.53125 2.5 6.53125H13.75C13.8743 6.53125 13.9935 6.58064 14.0815 6.66854C14.1694 6.75645 14.2187 6.87568 14.2187 7V17.1184L17.1686 14.1685C17.2568 14.0818 17.3756 14.0334 17.4993 14.034C17.6229 14.0345 17.7414 14.0838 17.8288 14.1713C17.9162 14.2587 17.9656 14.3772 17.966 14.5008C17.9665 14.6245 17.9181 14.7433 17.8314 14.8315V14.8315Z" fill="black"/>
</svg>
