<svg width="26" height="26" viewBox="0 0 26 26" fill="none" xmlns="http://www.w3.org/2000/svg">
<path d="M23.1562 13C23.1564 11.4859 22.8175 9.99104 22.1645 8.62504C21.5114 7.25904 20.5608 6.05659 19.3824 5.10597C19.3727 5.09642 19.3643 5.08606 19.3536 5.07732C19.3413 5.06813 19.3285 5.05965 19.3153 5.05193C17.8206 3.86151 16.02 3.11767 14.121 2.90614C12.2219 2.69461 10.3018 3.024 8.58182 3.85634C8.55823 3.86543 8.53555 3.87672 8.51408 3.89006C7.11925 4.5795 5.9008 5.57916 4.95212 6.8124C4.00344 8.04564 3.34972 9.47972 3.04108 11.0047C3.04057 11.0067 3.03966 11.0087 3.03925 11.0108C3.03884 11.0128 3.03915 11.0148 3.03874 11.0168C2.66439 12.8993 2.8313 14.8493 3.52014 16.6408C4.20897 18.4323 5.39151 19.9918 6.93062 21.1385C6.95254 21.1602 6.97687 21.1793 7.00313 21.1955C7.00923 21.1993 7.01583 21.2019 7.02212 21.2054C8.3519 22.1764 9.89812 22.809 11.5272 23.0485C13.1562 23.288 14.8191 23.1273 16.3721 22.5801C16.3937 22.5744 16.4148 22.567 16.4351 22.5579C18.4018 21.8484 20.1021 20.5502 21.3047 18.84C22.5073 17.1299 23.1538 15.0907 23.1562 13V13ZM16.833 21.5209C17.0476 20.4438 17.1558 19.3482 17.1562 18.25C17.1557 16.8361 16.9755 15.428 16.6202 14.0595C18.0828 13.6266 19.6002 13.4065 21.1255 13.4061C21.5274 13.4061 21.9319 13.4215 22.3327 13.4516C22.2474 15.1725 21.6889 16.8364 20.7185 18.2602C19.7482 19.684 18.4036 20.8123 16.8331 21.5209H16.833ZM22.336 12.6374C21.9338 12.6086 21.5285 12.5936 21.1256 12.5936C19.525 12.5941 17.9328 12.8246 16.3979 13.2781C16.0261 12.0841 15.5201 10.9361 14.8897 9.85615C14.8404 9.77195 14.7887 9.68958 14.7381 9.6063C16.4054 8.65573 17.8961 7.42452 19.1445 5.96691C20.1032 6.80244 20.8808 7.8252 21.4297 8.97233C21.9785 10.1195 22.287 11.3667 22.336 12.6374ZM18.5102 5.459C17.3168 6.84715 15.8922 8.01829 14.2994 8.92055C13.0534 7.08359 11.455 5.5123 9.59704 4.29783C11.0603 3.72523 12.6445 3.53142 14.2026 3.73439C15.7608 3.93736 17.2424 4.53054 18.5102 5.4589V5.459ZM8.71182 4.70002C10.6414 5.87328 12.2998 7.443 13.5772 9.30527C11.3795 10.4016 8.95661 10.9711 6.5006 10.9686C5.63894 10.9685 4.77869 10.8989 3.92823 10.7604C4.24999 9.46866 4.84295 8.26023 5.66772 7.21535C6.49248 6.17047 7.53017 5.31307 8.71182 4.70012V4.70002ZM3.65624 13C3.65619 12.5171 3.69344 12.0348 3.76766 11.5576C4.67104 11.7063 5.58506 11.781 6.5006 11.7811C9.11347 11.7841 11.6903 11.1712 14.022 9.99224C14.0779 10.0832 14.1342 10.1739 14.1882 10.2662C14.789 11.2954 15.2709 12.3895 15.6247 13.5275C14.6526 13.8661 13.7143 14.2947 12.822 14.8078C10.5125 16.1411 8.55435 18.0061 7.11018 20.2479C6.03122 19.3731 5.16121 18.2684 4.56366 17.0145C3.96611 15.7606 3.65609 14.389 3.65624 13V13ZM7.76373 20.735C9.14017 18.5813 11.014 16.79 13.2275 15.5119C14.0617 15.0323 14.9381 14.6304 15.8459 14.3112C16.1758 15.5981 16.3431 16.9214 16.3437 18.25C16.3436 19.4701 16.2033 20.6861 15.9255 21.8741C14.5686 22.3216 13.1271 22.4516 11.7121 22.2541C10.297 22.0566 8.94622 21.5368 7.76373 20.7349V20.735Z" fill="black"/>
</svg>
