<svg width="26" height="26" viewBox="0 0 26 26" fill="none" xmlns="http://www.w3.org/2000/svg">
<path d="M23.1535 5.66038C23.1528 5.64569 23.1514 5.63104 23.1491 5.61651C23.1468 5.60361 23.1431 5.59142 23.1397 5.57893C23.1364 5.56597 23.1324 5.55319 23.1278 5.54064C23.1226 5.52799 23.1168 5.51562 23.1103 5.50357C23.1046 5.4924 23.0992 5.48112 23.0923 5.47036C23.084 5.45789 23.075 5.44589 23.0655 5.43441C23.0599 5.4274 23.0556 5.41968 23.0494 5.41298C23.0474 5.41084 23.045 5.40942 23.0431 5.40729C23.0324 5.39656 23.021 5.38645 23.0091 5.37702C23.0001 5.36951 22.9916 5.36148 22.9823 5.35488C22.9706 5.34725 22.9585 5.34023 22.9461 5.33386C22.9352 5.32777 22.9248 5.32106 22.9136 5.31619C22.9014 5.3108 22.8885 5.30735 22.8758 5.30319C22.8634 5.29912 22.8514 5.29445 22.8387 5.29161C22.8268 5.28897 22.8143 5.28805 22.8021 5.28653C22.7877 5.28428 22.7733 5.28282 22.7587 5.28216C22.7558 5.28216 22.753 5.28125 22.75 5.28125H3.25C3.24695 5.28125 3.24431 5.28206 3.24137 5.28216C3.22627 5.28283 3.21121 5.28432 3.19627 5.28663C3.1847 5.28826 3.17291 5.28897 3.16174 5.29151C3.1482 5.29495 3.13484 5.29908 3.12173 5.3039C3.11005 5.30786 3.09796 5.31101 3.08679 5.31598C3.0746 5.32127 3.06343 5.32837 3.05175 5.33498C3.04038 5.34137 3.0287 5.34716 3.01803 5.35468C3.00828 5.36148 2.99934 5.36991 2.9901 5.37763C2.97851 5.38692 2.96742 5.39682 2.95689 5.40729C2.95486 5.40932 2.95252 5.41084 2.95059 5.41298C2.9445 5.41968 2.94013 5.4274 2.93455 5.43441C2.92496 5.44589 2.91601 5.45789 2.90773 5.47036C2.90083 5.48112 2.89534 5.4924 2.88966 5.50367C2.88346 5.51586 2.87716 5.52784 2.87219 5.54064C2.86731 5.55323 2.86386 5.56603 2.8603 5.57903C2.85685 5.59142 2.8532 5.60361 2.85086 5.61651C2.84861 5.63104 2.84716 5.64569 2.84649 5.66038C2.84588 5.66952 2.84375 5.67826 2.84375 5.6875V19.5C2.8441 19.8231 2.97262 20.1329 3.2011 20.3614C3.42958 20.5899 3.73937 20.7184 4.0625 20.7188H21.9375C22.2606 20.7184 22.5704 20.5899 22.7989 20.3614C23.0274 20.1329 23.1559 19.8231 23.1562 19.5V5.6875C23.1562 5.67826 23.1541 5.66952 23.1535 5.66038ZM21.7055 6.09375L13 14.0739L4.29447 6.09375H21.7055ZM21.9375 19.9062H4.0625C3.95479 19.9061 3.85152 19.8633 3.77536 19.7871C3.69919 19.711 3.65636 19.6077 3.65625 19.5V6.61101L12.7255 14.9245C12.8004 14.9932 12.8984 15.0313 13 15.0313C13.1016 15.0313 13.1996 14.9932 13.2745 14.9245L22.3438 6.61101V19.5C22.3436 19.6077 22.3008 19.711 22.2246 19.7871C22.1485 19.8633 22.0452 19.9061 21.9375 19.9062Z" fill="black"/>
</svg>
