<svg width="26" height="26" viewBox="0 0 26 26" fill="none" xmlns="http://www.w3.org/2000/svg">
<path d="M13 8.53125C12.1162 8.53125 11.2522 8.79334 10.5173 9.28437C9.78241 9.7754 9.20964 10.4733 8.87141 11.2899C8.53318 12.1064 8.44469 13.005 8.61712 13.8718C8.78954 14.7387 9.21515 15.5349 9.84012 16.1599C10.4651 16.7848 11.2613 17.2105 12.1282 17.3829C12.995 17.5553 13.8936 17.4668 14.7101 17.1286C15.5267 16.7904 16.2246 16.2176 16.7156 15.4827C17.2067 14.7478 17.4688 13.8838 17.4688 13C17.4674 11.8152 16.9962 10.6794 16.1584 9.8416C15.3206 9.00384 14.1848 8.53259 13 8.53125V8.53125ZM13 16.6562C12.2769 16.6562 11.57 16.4418 10.9687 16.0401C10.3674 15.6383 9.8988 15.0673 9.62207 14.3992C9.34533 13.7311 9.27293 12.9959 9.414 12.2867C9.55508 11.5775 9.90331 10.926 10.4146 10.4146C10.926 9.90331 11.5775 9.55508 12.2867 9.414C12.9959 9.27293 13.7311 9.34533 14.3992 9.62207C15.0673 9.8988 15.6383 10.3674 16.0401 10.9687C16.4418 11.57 16.6562 12.2769 16.6562 13C16.6552 13.9694 16.2696 14.8987 15.5842 15.5842C14.8987 16.2696 13.9694 16.6552 13 16.6562ZM17.4688 3.25H8.53125C7.13106 3.25159 5.78868 3.80851 4.79859 4.79859C3.80851 5.78868 3.25159 7.13106 3.25 8.53125V17.4688C3.25159 18.8689 3.80851 20.2113 4.79859 21.2014C5.78868 22.1915 7.13106 22.7484 8.53125 22.75H17.4688C18.8689 22.7484 20.2113 22.1915 21.2014 21.2014C22.1915 20.2113 22.7484 18.8689 22.75 17.4688V8.53125C22.7484 7.13106 22.1915 5.78868 21.2014 4.79859C20.2113 3.80851 18.8689 3.25159 17.4688 3.25V3.25ZM21.9375 17.4688C21.9362 18.6535 21.4649 19.7894 20.6271 20.6271C19.7894 21.4649 18.6535 21.9362 17.4688 21.9375H8.53125C7.34648 21.9362 6.21061 21.4649 5.37285 20.6271C4.53509 19.7894 4.06384 18.6535 4.0625 17.4688V8.53125C4.06384 7.34648 4.53509 6.21061 5.37285 5.37285C6.21061 4.53509 7.34648 4.06384 8.53125 4.0625H17.4688C18.6535 4.06384 19.7894 4.53509 20.6271 5.37285C21.4649 6.21061 21.9362 7.34648 21.9375 8.53125V17.4688ZM19.0938 7.71875C19.0938 7.87945 19.0461 8.03654 18.9568 8.17015C18.8675 8.30377 18.7406 8.40791 18.5922 8.4694C18.4437 8.5309 18.2803 8.54699 18.1227 8.51564C17.9651 8.48429 17.8204 8.4069 17.7067 8.29327C17.5931 8.17964 17.5157 8.03487 17.4844 7.87726C17.453 7.71965 17.4691 7.55628 17.5306 7.40782C17.5921 7.25935 17.6962 7.13246 17.8298 7.04318C17.9635 6.9539 18.1206 6.90625 18.2812 6.90625C18.4967 6.90652 18.7032 6.99221 18.8555 7.14452C19.0078 7.29684 19.0935 7.50334 19.0938 7.71875V7.71875Z" fill="black"/>
</svg>
