<svg width="26" height="26" viewBox="0 0 26 26" fill="none" xmlns="http://www.w3.org/2000/svg">
<path d="M21.4783 3.25H4.52174C4.18457 3.25039 3.86133 3.38451 3.62292 3.62292C3.38451 3.86133 3.25039 4.18457 3.25 4.52174V21.4783C3.25039 21.8154 3.38451 22.1387 3.62292 22.3771C3.86133 22.6155 4.18457 22.7496 4.52174 22.75H21.4783C21.8154 22.7496 22.1387 22.6155 22.3771 22.3771C22.6155 22.1387 22.7496 21.8154 22.75 21.4783V4.52174C22.7496 4.18457 22.6155 3.86133 22.3771 3.62292C22.1387 3.38451 21.8154 3.25039 21.4783 3.25V3.25ZM21.9022 21.4783C21.902 21.5906 21.8573 21.6984 21.7779 21.7779C21.6984 21.8573 21.5906 21.902 21.4783 21.9022H4.52174C4.40935 21.902 4.30161 21.8573 4.22214 21.7779C4.14267 21.6984 4.09797 21.5906 4.09783 21.4783V4.52174C4.09797 4.40935 4.14267 4.30161 4.22214 4.22214C4.30161 4.14267 4.40935 4.09797 4.52174 4.09783H21.4783C21.5906 4.09797 21.6984 4.14267 21.7779 4.22214C21.8573 4.30161 21.902 4.40935 21.9022 4.52174V21.4783ZM9.18478 11.3045V18.0871C9.18478 18.1995 9.14012 18.3073 9.06062 18.3868C8.98112 18.4663 8.8733 18.511 8.76087 18.511C8.64844 18.511 8.54062 18.4663 8.46112 18.3868C8.38162 18.3073 8.33696 18.1995 8.33696 18.0871V11.3045C8.33696 11.192 8.38162 11.0842 8.46112 11.0047C8.54062 10.9252 8.64844 10.8805 8.76087 10.8805C8.8733 10.8805 8.98112 10.9252 9.06062 11.0047C9.14012 11.0842 9.18478 11.192 9.18478 11.3045ZM18.5109 14.2718V18.0871C18.5109 18.1995 18.4662 18.3073 18.3867 18.3868C18.3072 18.4663 18.1994 18.511 18.087 18.511C17.9745 18.511 17.8667 18.4663 17.7872 18.3868C17.7077 18.3073 17.663 18.1995 17.663 18.0871V14.2718C17.663 13.5973 17.3951 12.9503 16.9181 12.4733C16.4411 11.9963 15.7941 11.7284 15.1196 11.7284C14.445 11.7284 13.798 11.9963 13.3211 12.4733C12.8441 12.9503 12.5761 13.5973 12.5761 14.2718V18.0871C12.5761 18.1995 12.5314 18.3073 12.4519 18.3868C12.3724 18.4663 12.2646 18.511 12.1522 18.511C12.0397 18.511 11.9319 18.4663 11.8524 18.3868C11.7729 18.3073 11.7283 18.1995 11.7283 18.0871V11.3045C11.7283 11.192 11.7729 11.0842 11.8524 11.0047C11.9319 10.9252 12.0397 10.8805 12.1522 10.8805C12.2646 10.8805 12.3724 10.9252 12.4519 11.0047C12.5314 11.0842 12.5761 11.192 12.5761 11.3045V12.0323C13.031 11.5148 13.6329 11.1482 14.3014 10.9814C14.97 10.8146 15.6735 10.8556 16.3182 11.0989C16.9629 11.3422 17.5181 11.7761 17.9099 12.343C18.3016 12.9099 18.5113 13.5827 18.5109 14.2717V14.2718ZM9.6087 7.91304C9.6087 8.08073 9.55897 8.24465 9.46581 8.38407C9.37265 8.52349 9.24024 8.63216 9.08532 8.69633C8.9304 8.7605 8.75993 8.77729 8.59547 8.74458C8.431 8.71187 8.27994 8.63112 8.16137 8.51255C8.0428 8.39398 7.96205 8.24291 7.92933 8.07845C7.89662 7.91398 7.91341 7.74351 7.97758 7.58859C8.04175 7.43367 8.15042 7.30126 8.28984 7.2081C8.42927 7.11494 8.59319 7.06522 8.76087 7.06522C8.98564 7.0655 9.20113 7.15491 9.36006 7.31385C9.519 7.47279 9.60842 7.68827 9.6087 7.91304V7.91304Z" fill="black"/>
</svg>
