<svg width="26" height="26" viewBox="0 0 26 26" fill="none" xmlns="http://www.w3.org/2000/svg">
<path d="M8.12499 22.3438C5.85256 22.3442 3.61727 21.7674 1.62875 20.6674C1.55056 20.6238 1.48893 20.5556 1.45342 20.4734C1.41791 20.3912 1.4105 20.2995 1.43232 20.2127C1.45415 20.1258 1.504 20.0486 1.57416 19.9929C1.64431 19.9373 1.73086 19.9063 1.8204 19.9048C4.08097 19.8734 6.29095 19.2311 8.2162 18.0459C6.05624 16.4265 4.43461 14.1935 3.56293 11.6385C2.69126 9.08344 2.61002 6.32498 3.32982 3.72307C3.35072 3.64771 3.39293 3.57999 3.45137 3.52803C3.50981 3.47607 3.58201 3.44208 3.6593 3.43014C3.73658 3.41821 3.81567 3.42883 3.88706 3.46074C3.95846 3.49265 4.01913 3.54449 4.06178 3.61003C5.01679 5.08503 6.27071 6.34319 7.74249 7.30316C9.21426 8.26313 10.8711 8.90353 12.6059 9.18297C12.5965 9.06387 12.5917 8.94443 12.5917 8.82465C12.5918 7.85792 12.9054 6.91729 13.4854 6.14387C14.0654 5.37045 14.8806 4.80596 15.8086 4.53507C16.7366 4.26418 17.7274 4.3015 18.6324 4.64144C19.5374 4.98138 20.3077 5.60561 20.8279 6.42047C21.9916 6.36409 23.1418 6.14717 24.2461 5.77585C24.3272 5.74863 24.4148 5.74769 24.4964 5.77316C24.5781 5.79863 24.6496 5.84922 24.7008 5.91772C24.752 5.98621 24.7803 6.06912 24.7816 6.15464C24.783 6.24015 24.7573 6.3239 24.7082 6.39396C23.8354 7.64403 22.7551 8.73553 21.5141 9.62121C21.3387 13.0539 19.8515 16.2882 17.3598 18.6558C14.8681 21.0235 11.5622 22.3437 8.12499 22.3437V22.3438ZM3.37827 20.6051C4.88613 21.2165 6.49788 21.531 8.12499 21.5312C11.3868 21.5312 14.5214 20.2657 16.8689 18.001C19.2164 15.7363 20.5937 12.6492 20.7108 9.38944C20.7131 9.32616 20.73 9.26428 20.7604 9.20873C20.7908 9.15318 20.8338 9.10551 20.8859 9.06952C21.7817 8.45112 22.5929 7.71834 23.2988 6.88979C22.4185 7.09712 21.5194 7.21506 20.6153 7.2418C20.5392 7.24404 20.4639 7.22483 20.3982 7.18634C20.3324 7.14786 20.2788 7.09166 20.2434 7.02416C19.8138 6.2667 19.128 5.68738 18.3093 5.3904C17.4907 5.09342 16.593 5.09826 15.7776 5.40404C14.9622 5.70982 14.2827 6.29649 13.8612 7.05853C13.4397 7.82057 13.304 8.70799 13.4784 9.56119C13.4945 9.62578 13.4944 9.69334 13.4783 9.75793C13.4622 9.82252 13.4305 9.88217 13.3859 9.93163C13.3414 9.98109 13.2854 10.0189 13.2228 10.0416C13.1602 10.0644 13.093 10.0714 13.0271 10.0621C11.2298 9.84937 9.49455 9.27357 7.92661 8.36967C6.35868 7.46577 4.99082 6.25263 3.90609 4.8039C3.41461 7.2365 3.65152 9.76003 4.58718 12.0587C5.52283 14.3573 7.11566 16.3289 9.16631 17.7267C9.22098 17.764 9.26572 17.814 9.29664 17.8725C9.32756 17.931 9.34372 17.9962 9.34372 18.0624C9.34372 18.1285 9.32756 18.1937 9.29664 18.2522C9.26572 18.3107 9.22098 18.3608 9.16631 18.398C7.4371 19.5781 5.45418 20.3342 3.37827 20.605V20.6051Z" fill="black"/>
</svg>
